<?xml version="1.0" encoding="UTF-8" standalone="no"?>
<svg
   xmlns:dc="http://purl.org/dc/elements/1.1/"
   xmlns:cc="http://creativecommons.org/ns#"
   xmlns:rdf="http://www.w3.org/1999/02/22-rdf-syntax-ns#"
   xmlns:svg="http://www.w3.org/2000/svg"
   xmlns="http://www.w3.org/2000/svg"
   xmlns:xlink="http://www.w3.org/1999/xlink"
   xmlns:sodipodi="http://sodipodi.sourceforge.net/DTD/sodipodi-0.dtd"
   xmlns:inkscape="http://www.inkscape.org/namespaces/inkscape"
   width="297mm"
   height="210mm"
   viewBox="0 0 297 210"
   version="1.1"
   id="svg8"
   inkscape:version="1.0.1 (3bc2e813f5, 2020-09-07)"
   sodipodi:docname="AdminHomePage.svg"
   inkscape:export-filename="C:\Users\Michelle\Desktop\School\APPDEV-Group\Midterm SVG\AdminHomePage.png"
   inkscape:export-xdpi="96.900002"
   inkscape:export-ydpi="96.900002">
  <defs
     id="defs2">
    <linearGradient
       inkscape:collect="always"
       id="linearGradient4337">
      <stop
         style="stop-color:#4d958a;stop-opacity:1;"
         offset="0"
         id="stop4333" />
      <stop
         style="stop-color:#4d958a;stop-opacity:0;"
         offset="1"
         id="stop4335" />
    </linearGradient>
    <linearGradient
       inkscape:collect="always"
       id="linearGradient4215">
      <stop
         style="stop-color:#694666;stop-opacity:1;"
         offset="0"
         id="stop4211" />
      <stop
         style="stop-color:#694666;stop-opacity:0;"
         offset="1"
         id="stop4213" />
    </linearGradient>
    <linearGradient
       inkscape:collect="always"
       id="linearGradient4145">
      <stop
         style="stop-color:#eac36c;stop-opacity:1;"
         offset="0"
         id="stop4141" />
      <stop
         style="stop-color:#eac36c;stop-opacity:0;"
         offset="1"
         id="stop4143" />
    </linearGradient>
    <linearGradient
       inkscape:collect="always"
       id="linearGradient4106">
      <stop
         style="stop-color:#7c123a;stop-opacity:1;"
         offset="0"
         id="stop4102" />
      <stop
         style="stop-color:#7c123a;stop-opacity:0;"
         offset="1"
         id="stop4104" />
    </linearGradient>
    <linearGradient
       inkscape:collect="always"
       id="linearGradient4065">
      <stop
         style="stop-color:#202954;stop-opacity:1;"
         offset="0"
         id="stop4061" />
      <stop
         style="stop-color:#202954;stop-opacity:0;"
         offset="1"
         id="stop4063" />
    </linearGradient>
    <linearGradient
       inkscape:collect="always"
       id="linearGradient4019">
      <stop
         style="stop-color:#eac36c;stop-opacity:1;"
         offset="0"
         id="stop4015" />
      <stop
         style="stop-color:#eac36c;stop-opacity:0;"
         offset="1"
         id="stop4017" />
    </linearGradient>
    <linearGradient
       inkscape:collect="always"
       id="linearGradient3907">
      <stop
         style="stop-color:#fadbc6;stop-opacity:1;"
         offset="0"
         id="stop3903" />
      <stop
         style="stop-color:#fadbc6;stop-opacity:0;"
         offset="1"
         id="stop3905" />
    </linearGradient>
    <linearGradient
       inkscape:collect="always"
       id="linearGradient3884">
      <stop
         style="stop-color:#fadbc6;stop-opacity:1;"
         offset="0"
         id="stop3880" />
      <stop
         style="stop-color:#fadbc6;stop-opacity:0;"
         offset="1"
         id="stop3882" />
    </linearGradient>
    <linearGradient
       inkscape:collect="always"
       id="linearGradient3861">
      <stop
         style="stop-color:#fadbc6;stop-opacity:1;"
         offset="0"
         id="stop3857" />
      <stop
         style="stop-color:#fadbc6;stop-opacity:0;"
         offset="1"
         id="stop3859" />
    </linearGradient>
    <linearGradient
       inkscape:collect="always"
       id="linearGradient3810">
      <stop
         style="stop-color:#b03142;stop-opacity:1;"
         offset="0"
         id="stop3806" />
      <stop
         style="stop-color:#b03142;stop-opacity:0;"
         offset="1"
         id="stop3808" />
    </linearGradient>
    <linearGradient
       inkscape:collect="always"
       id="linearGradient3771">
      <stop
         style="stop-color:#f89a66;stop-opacity:1;"
         offset="0"
         id="stop3767" />
      <stop
         style="stop-color:#f89a66;stop-opacity:0;"
         offset="1"
         id="stop3769" />
    </linearGradient>
    <linearGradient
       inkscape:collect="always"
       id="linearGradient3703">
      <stop
         style="stop-color:#164c68;stop-opacity:1;"
         offset="0"
         id="stop3699" />
      <stop
         style="stop-color:#164c68;stop-opacity:0;"
         offset="1"
         id="stop3701" />
    </linearGradient>
    <linearGradient
       inkscape:collect="always"
       id="linearGradient3651">
      <stop
         style="stop-color:#b24258;stop-opacity:1;"
         offset="0"
         id="stop3647" />
      <stop
         style="stop-color:#b24258;stop-opacity:0;"
         offset="1"
         id="stop3649" />
    </linearGradient>
    <linearGradient
       inkscape:collect="always"
       id="linearGradient3564">
      <stop
         style="stop-color:#eac36c;stop-opacity:1;"
         offset="0"
         id="stop3560" />
      <stop
         style="stop-color:#eac36c;stop-opacity:0;"
         offset="1"
         id="stop3562" />
    </linearGradient>
    <linearGradient
       inkscape:collect="always"
       id="linearGradient3380">
      <stop
         style="stop-color:#f89a66;stop-opacity:0.502"
         offset="0"
         id="stop3376" />
      <stop
         style="stop-color:#f89a66;stop-opacity:0;"
         offset="1"
         id="stop3378" />
    </linearGradient>
    <linearGradient
       inkscape:collect="always"
       id="linearGradient2393">
      <stop
         style="stop-color:#eac36c;stop-opacity:1;"
         offset="0"
         id="stop2389" />
      <stop
         style="stop-color:#eac36c;stop-opacity:0;"
         offset="1"
         id="stop2391" />
    </linearGradient>
    <linearGradient
       inkscape:collect="always"
       id="linearGradient2385">
      <stop
         style="stop-color:#25213a;stop-opacity:1;"
         offset="0"
         id="stop2381" />
      <stop
         style="stop-color:#25213a;stop-opacity:0;"
         offset="1"
         id="stop2383" />
    </linearGradient>
    <linearGradient
       inkscape:collect="always"
       id="linearGradient2296">
      <stop
         style="stop-color:#4d958a;stop-opacity:1;"
         offset="0"
         id="stop2292" />
      <stop
         style="stop-color:#4d958a;stop-opacity:0;"
         offset="1"
         id="stop2294" />
    </linearGradient>
    <linearGradient
       inkscape:collect="always"
       id="linearGradient2265">
      <stop
         style="stop-color:#ffffff;stop-opacity:1;"
         offset="0"
         id="stop2261" />
      <stop
         style="stop-color:#ffffff;stop-opacity:0;"
         offset="1"
         id="stop2263" />
    </linearGradient>
    <linearGradient
       inkscape:collect="always"
       id="linearGradient8615">
      <stop
         style="stop-color:#df6945;stop-opacity:1;"
         offset="0"
         id="stop8611" />
      <stop
         style="stop-color:#df6945;stop-opacity:0;"
         offset="1"
         id="stop8613" />
    </linearGradient>
    <linearGradient
       inkscape:collect="always"
       xlink:href="#linearGradient8615"
       id="linearGradient2888"
       x1="36.711819"
       y1="106.96452"
       x2="68.524963"
       y2="106.96452"
       gradientUnits="userSpaceOnUse" />
    <linearGradient
       inkscape:collect="always"
       xlink:href="#linearGradient2265"
       id="linearGradient2267"
       x1="49.487152"
       y1="99.303688"
       x2="49.712952"
       y2="142.58115"
       gradientUnits="userSpaceOnUse" />
    <linearGradient
       inkscape:collect="always"
       xlink:href="#linearGradient2296"
       id="linearGradient2298"
       x1="51.283916"
       y1="144.51642"
       x2="50.60675"
       y2="182.88432"
       gradientUnits="userSpaceOnUse" />
    <linearGradient
       inkscape:collect="always"
       xlink:href="#linearGradient2385"
       id="linearGradient2387"
       x1="35.864613"
       y1="173.3887"
       x2="255.88113"
       y2="38.923504"
       gradientUnits="userSpaceOnUse" />
    <linearGradient
       inkscape:collect="always"
       xlink:href="#linearGradient2393"
       id="linearGradient2395"
       x1="88.246147"
       y1="65.759201"
       x2="87.670372"
       y2="99.749374"
       gradientUnits="userSpaceOnUse" />
    <linearGradient
       inkscape:collect="always"
       xlink:href="#linearGradient3380"
       id="linearGradient3382"
       x1="87.680214"
       y1="90.468132"
       x2="88.246574"
       y2="65.759209"
       gradientUnits="userSpaceOnUse" />
    <linearGradient
       inkscape:collect="always"
       xlink:href="#linearGradient3564"
       id="linearGradient3566"
       x1="72.783392"
       y1="128.5198"
       x2="144.70411"
       y2="128.5198"
       gradientUnits="userSpaceOnUse" />
    <linearGradient
       inkscape:collect="always"
       xlink:href="#linearGradient3651"
       id="linearGradient3653"
       x1="153.75615"
       y1="156.90869"
       x2="153.75615"
       y2="62.112198"
       gradientUnits="userSpaceOnUse" />
    <linearGradient
       inkscape:collect="always"
       xlink:href="#linearGradient3703"
       id="linearGradient3705"
       x1="192.4449"
       y1="89.652115"
       x2="191.89491"
       y2="68.614616"
       gradientUnits="userSpaceOnUse" />
    <linearGradient
       inkscape:collect="always"
       xlink:href="#linearGradient3771"
       id="linearGradient3773"
       x1="191.09412"
       y1="119.57345"
       x2="190.64986"
       y2="99.301582"
       gradientUnits="userSpaceOnUse" />
    <linearGradient
       inkscape:collect="always"
       xlink:href="#linearGradient3810"
       id="linearGradient3812"
       x1="191.70937"
       y1="150.25311"
       x2="191.8125"
       y2="129.9375"
       gradientUnits="userSpaceOnUse" />
    <linearGradient
       inkscape:collect="always"
       xlink:href="#linearGradient3861"
       id="linearGradient3863"
       x1="190.78366"
       y1="146.07326"
       x2="190.8145"
       y2="133.96848"
       gradientUnits="userSpaceOnUse" />
    <linearGradient
       inkscape:collect="always"
       xlink:href="#linearGradient3884"
       id="linearGradient3886"
       x1="191.54544"
       y1="116.21912"
       x2="191.21942"
       y2="102.9476"
       gradientUnits="userSpaceOnUse" />
    <linearGradient
       inkscape:collect="always"
       xlink:href="#linearGradient3907"
       id="linearGradient3909"
       x1="191.5656"
       y1="86.090996"
       x2="191.19926"
       y2="71.652756"
       gradientUnits="userSpaceOnUse" />
    <linearGradient
       inkscape:collect="always"
       xlink:href="#linearGradient4019"
       id="linearGradient4021"
       x1="210.29338"
       y1="50.696"
       x2="267.29338"
       y2="50.696"
       gradientUnits="userSpaceOnUse" />
    <linearGradient
       inkscape:collect="always"
       xlink:href="#linearGradient4065"
       id="linearGradient4067"
       x1="78.20546"
       y1="35.001744"
       x2="230.37705"
       y2="35.001744"
       gradientUnits="userSpaceOnUse" />
    <linearGradient
       inkscape:collect="always"
       xlink:href="#linearGradient4106"
       id="linearGradient4108"
       x1="245.98262"
       y1="93.863398"
       x2="262.98262"
       y2="93.863398"
       gradientUnits="userSpaceOnUse" />
    <linearGradient
       inkscape:collect="always"
       xlink:href="#linearGradient4145"
       id="linearGradient4147"
       x1="233.86694"
       y1="184.81354"
       x2="233.58798"
       y2="117.90231"
       gradientUnits="userSpaceOnUse"
       gradientTransform="translate(0,0.52916667)" />
    <linearGradient
       inkscape:collect="always"
       xlink:href="#linearGradient4215"
       id="linearGradient4217"
       x1="254.873"
       y1="150.36867"
       x2="258.61526"
       y2="95.479469"
       gradientUnits="userSpaceOnUse"
       gradientTransform="translate(0.05810312,0.5259671)" />
    <linearGradient
       inkscape:collect="always"
       xlink:href="#linearGradient4337"
       id="linearGradient4339"
       x1="271.93079"
       y1="63.054058"
       x2="273.79044"
       y2="120.85944"
       gradientUnits="userSpaceOnUse" />
    <linearGradient
       inkscape:collect="always"
       xlink:href="#linearGradient4337"
       id="linearGradient4345"
       gradientUnits="userSpaceOnUse"
       x1="271.93079"
       y1="63.054058"
       x2="273.79044"
       y2="120.85944"
       gradientTransform="translate(1.541175,-0.38070465)" />
  </defs>
  <sodipodi:namedview
     id="base"
     pagecolor="#ffffff"
     bordercolor="#666666"
     borderopacity="1.0"
     inkscape:pageopacity="0.0"
     inkscape:pageshadow="2"
     inkscape:zoom="0.64141414"
     inkscape:cx="561.25984"
     inkscape:cy="396.85039"
     inkscape:document-units="mm"
     inkscape:current-layer="layer1"
     inkscape:document-rotation="0"
     showgrid="false"
     inkscape:window-width="1304"
     inkscape:window-height="745"
     inkscape:window-x="-8"
     inkscape:window-y="-8"
     inkscape:window-maximized="1" />
  <metadata
     id="metadata5">
    <rdf:RDF>
      <cc:Work
         rdf:about="">
        <dc:format>image/svg+xml</dc:format>
        <dc:type
           rdf:resource="http://purl.org/dc/dcmitype/StillImage" />
        <dc:title />
      </cc:Work>
    </rdf:RDF>
  </metadata>
  <g
     inkscape:label="Layer 1"
     inkscape:groupmode="layer"
     id="layer1">
    <path
       id="path1214-6-3-6"
       style="fill:#eac36c;fill-opacity:1;stroke-width:0.264999;stroke-opacity:0"
       d="m 229.54764,24.21973 c 0.11771,-0.143539 -0.21497,0.217388 -1.23816,1.385962 0.62518,-0.681796 1.1287,-1.252473 1.23816,-1.385962 z m -1.23816,1.385962 c -0.74832,0.816068 -1.68077,1.800409 -2.4536,2.512509 -0.58095,0.535286 -1.17818,1.055854 -1.79317,1.554427 -1.91264,1.550707 -2.23902,1.685898 -4.31447,3.041158 -4.66454,2.927829 -9.15696,4.389083 -14.04565,4.971788 -1.01585,0.121089 -2.01216,0.156421 -3.01842,0.234611 -6.89872,0.361686 -12.84337,-1.449099 -18.70739,-3.234428 -5.56732,-1.871869 -11.2042,-3.629687 -16.91886,-5.264277 -4.81678,-1.487347 -10.10461,-2.364185 -15.9396,-1.328084 -1.18614,0.210603 -2.38706,0.577397 -3.58066,0.866095 -4.40564,1.285041 -8.60361,3.537903 -12.53102,6.390309 -0.73123,0.531051 -1.43035,1.107514 -2.14508,1.661914 l -1.88154,2.671673 c -3.46927,-0.389596 -6.6685,-1.389028 -9.83506,-2.381769 -4.20972,-1.457497 -8.47187,-2.826229 -12.79301,-4.098975 -3.64221,-1.158097 -7.64038,-1.840783 -12.052503,-1.034045 -0.8969,0.163984 -1.805305,0.449588 -2.707846,0.674378 -3.331318,1.000573 -6.505183,2.754948 -9.474872,4.975924 -0.552932,0.413493 -1.081675,0.862304 -1.622123,1.293977 l -4.289145,6.270937 c 0.54293,-0.462981 1.070891,-0.944909 1.628841,-1.388547 2.878421,-2.288582 5.993982,-4.12025 9.289873,-5.18728 0.875879,-0.234845 1.756156,-0.529268 2.627746,-0.70435 4.358199,-0.87543 8.260849,-0.180052 11.862839,0.925525 4.321,1.271678 8.5418,2.708566 12.80749,4.07262 4.5009,1.364055 9.01399,2.897625 14.25443,2.693374 0.77576,-0.05375 1.54401,-0.07613 2.32699,-0.161229 2.27103,-0.246862 4.66383,-0.715793 6.97941,-1.637109 1.44217,-0.5738 2.45664,-1.20904 3.8344,-1.990577 1.61814,-1.022019 1.83008,-1.095751 3.32744,-2.271178 1.70292,-1.336802 3.19035,-2.879405 4.59455,-4.492234 3.19022,0.150257 6.1944,0.809117 9.05372,1.661398 5.71445,1.633218 11.29613,3.478316 16.93746,5.230173 5.9524,1.751859 11.9206,3.722052 18.85105,3.459736 1.02592,-0.06903 2.04238,-0.09793 3.07785,-0.207221 3.00343,-0.317045 6.16811,-0.919467 9.23044,-2.102716 1.90725,-0.736933 3.24893,-1.552704 5.07101,-2.556433 2.13998,-1.312585 2.42001,-1.40753 4.40025,-2.917134 4.72344,-3.600863 8.19915,-8.357778 12.0158,-12.691216 l -7.89099,7.232634 c 2.93602,-3.42778 4.75611,-5.5274 5.82342,-6.746358 z m -77.81644,9.604064 c 0.0204,8e-5 0.0406,7.94e-4 0.061,0.0011 l -0.29043,0.273883 c 0.0926,-0.111315 0.13972,-0.167111 0.22945,-0.274918 z m -1.52032,0.03721 c -0.22919,0.15209 -0.46358,0.307062 -0.77928,0.519348 -3.52709,2.2797 -6.92346,3.417369 -10.62003,3.871081 -0.76814,0.09429 -1.52218,0.121539 -2.28306,0.182417 -0.29266,0.0158 -0.582,0.02453 -0.87023,0.02997 2.31638,-1.346631 4.72401,-2.447866 7.20938,-3.22926 1.15834,-0.301609 2.32205,-0.679998 3.47472,-0.904854 1.32072,-0.257633 2.60855,-0.404979 3.8685,-0.468704 z" />
    <path
       id="path858-6"
       style="fill:#d5302e;fill-opacity:1;stroke-width:0.264999;stroke-opacity:0"
       d="M 238.79337,22.196 A 28.499983,28.499975 0 0 0 210.29338,50.695951 28.499983,28.499975 0 0 0 238.79337,79.196 28.499983,28.499975 0 0 0 267.29338,50.695951 28.499983,28.499975 0 0 0 238.79337,22.196 Z m 0,5.69994 A 22.799984,22.799979 0 0 1 261.59315,50.695951 22.799984,22.799979 0 0 1 238.79337,73.496049 22.799984,22.799979 0 0 1 215.99332,50.695951 22.799984,22.799979 0 0 1 238.79337,27.89594 Z m 0,5.69995 A 17.099989,17.099986 0 0 0 221.69325,50.695951 17.099989,17.099986 0 0 0 238.79337,67.79581 17.099989,17.099986 0 0 0 255.89321,50.695951 17.099989,17.099986 0 0 0 238.79337,33.59589 Z" />
    <path
       id="path1214-6-3-6-3"
       style="fill:url(#linearGradient4067);fill-opacity:1;stroke-width:0.264999;stroke-opacity:0"
       d="m 229.54764,24.21973 c 0.11771,-0.143539 -0.21497,0.217388 -1.23816,1.385962 0.62518,-0.681796 1.1287,-1.252473 1.23816,-1.385962 z m -1.23816,1.385962 c -0.74832,0.816068 -1.68077,1.800409 -2.4536,2.512509 -0.58095,0.535286 -1.17818,1.055854 -1.79317,1.554427 -1.91264,1.550707 -2.23902,1.685898 -4.31447,3.041158 -4.66454,2.927829 -9.15696,4.389083 -14.04565,4.971788 -1.01585,0.121089 -2.01216,0.156421 -3.01842,0.234611 -6.89872,0.361686 -12.84337,-1.449099 -18.70739,-3.234428 -5.56732,-1.871869 -11.2042,-3.629687 -16.91886,-5.264277 -4.81678,-1.487347 -10.10461,-2.364185 -15.93961,-1.328084 -1.18614,0.210603 -2.38706,0.577397 -3.58065,0.866095 -4.40565,1.285041 -8.60361,3.537903 -12.53103,6.390309 -0.73122,0.531051 -1.43034,1.107514 -2.14508,1.661914 l -1.88154,2.671673 c -3.46927,-0.389596 -6.6685,-1.389028 -9.83506,-2.381769 -4.20971,-1.457497 -8.47186,-2.826229 -12.793,-4.098975 -3.64222,-1.158097 -7.64039,-1.840783 -12.05251,-1.034045 -0.8969,0.163984 -1.8053,0.449589 -2.70784,0.674379 -3.33132,1.000572 -6.50519,2.754947 -9.47488,4.975923 -0.55293,0.413493 -1.08167,0.862304 -1.62212,1.293977 l -4.28914,6.270937 c 0.54293,-0.462981 1.07089,-0.944909 1.62884,-1.388547 2.87842,-2.288582 5.99398,-4.12025 9.28987,-5.18728 0.87588,-0.234845 1.75616,-0.529268 2.62775,-0.70435 4.35819,-0.87543 8.26084,-0.180052 11.86283,0.925525 4.32101,1.271678 8.54181,2.708566 12.8075,4.07262 4.50089,1.364056 9.01398,2.897625 14.25442,2.693374 0.77577,-0.05375 1.54402,-0.07613 2.32699,-0.161229 2.27103,-0.246862 4.66384,-0.715792 6.97942,-1.637109 1.44217,-0.5738 2.45663,-1.20904 3.8344,-1.990577 1.61813,-1.022019 1.83007,-1.095751 3.32744,-2.271178 1.70291,-1.336802 3.19034,-2.879405 4.59455,-4.492234 3.19022,0.150257 6.19439,0.809117 9.05372,1.661398 5.71444,1.633218 11.29613,3.478316 16.93746,5.230173 5.9524,1.75186 11.9206,3.722052 18.85105,3.459736 1.02592,-0.06903 2.04238,-0.09793 3.07785,-0.207221 3.00343,-0.317045 6.16811,-0.919467 9.23044,-2.102716 1.90725,-0.736933 3.24893,-1.552704 5.07101,-2.556433 2.13998,-1.312585 2.42001,-1.40753 4.40025,-2.917134 4.72344,-3.600863 8.19915,-8.357778 12.0158,-12.691216 l -7.89099,7.232634 c 2.93602,-3.42778 4.75611,-5.5274 5.82342,-6.746358 z m -77.81644,9.604064 c 0.0204,8e-5 0.0406,7.94e-4 0.061,0.0011 l -0.29043,0.273883 c 0.0926,-0.111315 0.13972,-0.167111 0.22945,-0.274918 z m -1.52032,0.03721 c -0.22919,0.15209 -0.46358,0.307062 -0.77928,0.519348 -3.5271,2.2797 -6.92346,3.417369 -10.62004,3.871081 -0.76813,0.09429 -1.52218,0.121539 -2.28306,0.182417 -0.29265,0.0158 -0.58199,0.02453 -0.87022,0.02997 2.31638,-1.346631 4.724,-2.447866 7.20938,-3.22926 1.15833,-0.301609 2.32205,-0.679998 3.47472,-0.904854 1.32071,-0.257633 2.60854,-0.404979 3.8685,-0.468704 z" />
    <path
       id="path858-6-0"
       style="fill:url(#linearGradient4021);fill-opacity:1;stroke-width:0.264999;stroke-opacity:0"
       d="M 238.79337,22.196 A 28.499983,28.499975 0 0 0 210.29338,50.695951 28.499983,28.499975 0 0 0 238.79337,79.196 28.499983,28.499975 0 0 0 267.29338,50.695951 28.499983,28.499975 0 0 0 238.79337,22.196 Z m 0,5.69994 A 22.799984,22.799979 0 0 1 261.59315,50.695951 22.799984,22.799979 0 0 1 238.79337,73.496049 22.799984,22.799979 0 0 1 215.99332,50.695951 22.799984,22.799979 0 0 1 238.79337,27.89594 Z m 0,5.69995 A 17.099989,17.099986 0 0 0 221.69325,50.695951 17.099989,17.099986 0 0 0 238.79337,67.79581 17.099989,17.099986 0 0 0 255.89321,50.695951 17.099989,17.099986 0 0 0 238.79337,33.59589 Z" />
    <rect
       style="opacity:1;fill:#83305a;fill-opacity:1;stroke:#000000;stroke-width:0.264999;stroke-miterlimit:4;stroke-dasharray:none;stroke-opacity:0"
       id="rect3918"
       width="190"
       height="120"
       x="49.70615"
       y="49.510448"
       ry="0.20625012" />
    <rect
       style="opacity:1;fill:url(#linearGradient2387);fill-opacity:1;stroke:#000000;stroke-width:0.264999;stroke-miterlimit:4;stroke-dasharray:none;stroke-opacity:0"
       id="rect3918-6"
       width="190"
       height="120"
       x="49.70615"
       y="49.510452"
       ry="0.20625012" />
    <circle
       style="fill:#1a1a1a;fill-opacity:1;stroke:#000000;stroke-width:0.600001;stroke-linejoin:round;stroke-opacity:0"
       id="path1884-4-5"
       cx="88.246155"
       cy="83.817627"
       r="17" />
    <path
       id="path4050-9"
       style="opacity:0.99800004;fill:#164c68;fill-opacity:1;stroke:#7c123a;stroke-width:0.600001;stroke-linejoin:round;stroke-opacity:0"
       d="m 32.13055,147.76952 c -0.215913,0 -0.389675,0.19178 -0.389675,0.4295 v 33.99481 c 0,0.23773 0.173762,0.42904 0.389675,0.42904 h 34.589157 c 0.21592,0 0.38968,-0.19131 0.38968,-0.42904 v -7.91624 a 12.232888,11.784739 0 0 0 3.68782,0.54833 12.232888,11.784739 0 0 0 12.23293,-11.78465 12.232888,11.784739 0 0 0 -12.23293,-11.78466 12.232888,11.784739 0 0 0 -3.68782,0.54835 v -3.60594 c 0,-0.23772 -0.17376,-0.4295 -0.38968,-0.4295 z m 38.609877,6.99425 a 8.8072301,8.2776383 0 0 1 0.0568,0 8.8072301,8.2776383 0 0 1 8.80734,8.2775 8.8072301,8.2776383 0 0 1 -8.80734,8.27751 8.8072301,8.2776383 0 0 1 -3.68782,-0.7607 v -15.03361 a 8.8072301,8.2776383 0 0 1 3.63103,-0.7607 z" />
    <path
       id="path4050"
       style="opacity:1;fill:url(#linearGradient2298);fill-opacity:1;stroke:#7c123a;stroke-width:0.600002;stroke-linejoin:round;stroke-opacity:0"
       d="m 32.13055,147.76952 c -0.215913,0 -0.389675,0.19178 -0.389675,0.4295 v 33.99481 c 0,0.23773 0.173762,0.42904 0.389675,0.42904 h 34.58916 c 0.215913,0 0.389675,-0.19131 0.389675,-0.42904 v -7.91624 a 12.232888,11.784739 0 0 0 3.68782,0.54833 12.232888,11.784739 0 0 0 12.232925,-11.78465 12.232888,11.784739 0 0 0 -12.232925,-11.78466 12.232888,11.784739 0 0 0 -3.68782,0.54835 v -3.60594 c 0,-0.23772 -0.173762,-0.4295 -0.389675,-0.4295 z m 38.609873,6.99425 a 8.80723,8.2776381 0 0 1 0.05678,0 8.80723,8.2776381 0 0 1 8.807347,8.2775 8.80723,8.2776381 0 0 1 -8.807347,8.27751 8.80723,8.2776381 0 0 1 -3.68782,-0.7607 v -15.03361 a 8.80723,8.2776381 0 0 1 3.631038,-0.7607 z" />
    <path
       id="path2678-1-5-19-4"
       style="fill:#eac36c;fill-opacity:1;stroke-width:0.264999;stroke-opacity:0"
       d="m 261.20632,71.363423 a 1.7749357,1.7241193 0 0 0 -1.77344,1.706195 1.7749357,1.7241193 0 0 0 1.75648,1.741834 1.7749357,1.7241193 0 0 0 1.79317,-1.706639 1.7749357,1.7241193 0 0 0 -1.75694,-1.74139 1.7749357,1.7241193 0 0 0 -0.0192,0 z m -6.34214,5.783244 a 1.7749357,1.7241193 0 0 0 -1.77345,1.706195 1.7749357,1.7241193 0 0 0 1.75694,1.741834 1.7749357,1.7241193 0 0 0 1.79271,-1.706642 1.7749357,1.7241193 0 0 0 -1.75648,-1.741387 1.7749357,1.7241193 0 0 0 -0.0197,0 z m 6.34214,0.603181 a 1.7749357,1.7241193 0 0 0 -1.77344,1.706195 1.7749357,1.7241193 0 0 0 1.75648,1.741834 1.7749357,1.7241193 0 0 0 1.79317,-1.706639 1.7749357,1.7241193 0 0 0 -1.75694,-1.74139 1.7749357,1.7241193 0 0 0 -0.0192,0 z m -13.44971,3.233306 a 1.7749357,1.7241193 0 0 0 -1.7739,1.706642 1.7749357,1.7241193 0 0 0 1.75694,1.741387 1.7749357,1.7241193 0 0 0 1.79317,-1.706195 1.7749357,1.7241193 0 0 0 -1.75694,-1.741834 1.7749357,1.7241193 0 0 0 -0.0192,0 z m 7.10757,2.549938 a 1.7749357,1.7241193 0 0 0 -1.77345,1.706195 1.7749357,1.7241193 0 0 0 1.75649,1.741834 1.7749357,1.7241193 0 0 0 1.79316,-1.706639 1.7749357,1.7241193 0 0 0 -1.75648,-1.74139 1.7749357,1.7241193 0 0 0 -0.0197,0 z m 6.34214,0.603181 a 1.7749357,1.7241193 0 0 0 -1.77344,1.706195 1.7749357,1.7241193 0 0 0 1.75648,1.741834 1.7749357,1.7241193 0 0 0 1.79317,-1.706639 1.7749357,1.7241193 0 0 0 -1.75694,-1.74139 1.7749357,1.7241193 0 0 0 -0.0192,0 z m -13.44971,3.233309 a 1.7749357,1.7241193 0 0 0 -1.7739,1.706639 1.7749357,1.7241193 0 0 0 1.75694,1.741387 1.7749357,1.7241193 0 0 0 1.79271,-1.706194 1.7749357,1.7241193 0 0 0 -1.75648,-1.741832 1.7749357,1.7241193 0 0 0 -0.0192,0 z m 7.10757,2.549935 a 1.7749357,1.7241193 0 0 0 -1.77345,1.706195 1.7749357,1.7241193 0 0 0 1.75649,1.741834 1.7749357,1.7241193 0 0 0 1.79316,-1.706639 1.7749357,1.7241193 0 0 0 -1.75648,-1.74139 1.7749357,1.7241193 0 0 0 -0.0197,0 z m 6.34214,0.602737 a 1.7749357,1.7241193 0 0 0 -1.77344,1.706639 1.7749357,1.7241193 0 0 0 1.75648,1.741834 1.7749357,1.7241193 0 0 0 1.79317,-1.706639 1.7749357,1.7241193 0 0 0 -1.75694,-1.74139 1.7749357,1.7241193 0 0 0 -0.0192,-5.29e-4 z m -13.44971,3.233753 a 1.7749357,1.7241193 0 0 0 -1.7739,1.70664 1.7749357,1.7241193 0 0 0 1.75694,1.741392 1.7749357,1.7241193 0 0 0 1.79271,-1.7062 1.7749357,1.7241193 0 0 0 -1.75648,-1.741832 1.7749357,1.7241193 0 0 0 -0.0192,0 z m 7.10757,2.549935 a 1.7749357,1.7241193 0 0 0 -1.77345,1.706198 1.7749357,1.7241193 0 0 0 1.75649,1.74183 1.7749357,1.7241193 0 0 0 1.79316,-1.70663 1.7749357,1.7241193 0 0 0 -1.75694,-1.741398 1.7749357,1.7241193 0 0 0 -0.0192,0 z m -7.10757,3.836498 a 1.7749357,1.7241193 0 0 0 -1.7739,1.70663 1.7749357,1.7241193 0 0 0 1.75694,1.74139 1.7749357,1.7241193 0 0 0 1.79271,-1.7062 1.7749357,1.7241193 0 0 0 -1.75648,-1.74182 1.7749357,1.7241193 0 0 0 -0.0192,0 z m 7.10757,2.54993 a 1.7749357,1.7241193 0 0 0 -1.77345,1.70619 1.7749357,1.7241193 0 0 0 1.75649,1.74184 1.7749357,1.7241193 0 0 0 1.79316,-1.70664 1.7749357,1.7241193 0 0 0 -1.75694,-1.74139 1.7749357,1.7241193 0 0 0 -0.0192,0 z m -7.10802,3.83649 a 1.7749357,1.7241193 0 0 0 -1.77345,1.70664 1.7749357,1.7241193 0 0 0 1.75694,1.74139 1.7749357,1.7241193 0 0 0 1.79271,-1.7062 1.7749357,1.7241193 0 0 0 -1.75648,-1.74183 1.7749357,1.7241193 0 0 0 -0.0197,0 z m 0,6.38642 a 1.7749357,1.7241193 0 0 0 -1.77345,1.70665 1.7749357,1.7241193 0 0 0 1.75694,1.74138 1.7749357,1.7241193 0 0 0 1.79271,-1.70619 1.7749357,1.7241193 0 0 0 -1.75648,-1.74184 1.7749357,1.7241193 0 0 0 -0.0197,0 z" />
    <rect
       style="fill:#1a1a1a;fill-opacity:1;stroke:#000000;stroke-width:0.600001;stroke-linejoin:round;stroke-opacity:0"
       id="rect2032-5-9"
       width="50"
       height="20"
       x="165.72615"
       y="69.985451"
       rx="0.77000099" />
    <rect
       style="fill:#4d958a;stroke:#000000;stroke-width:0.600001;stroke-linejoin:round;stroke-opacity:0;fill-opacity:1"
       id="rect2032"
       width="50"
       height="20"
       x="165.72615"
       y="68.927116"
       rx="0.77000099" />
    <rect
       style="fill:#1a1a1a;fill-opacity:1;stroke:#000000;stroke-width:0.600001;stroke-linejoin:round;stroke-opacity:0"
       id="rect2032-5-9-3"
       width="50"
       height="20"
       x="165.72615"
       y="100.56878"
       rx="0.77000099" />
    <rect
       style="fill:#eac36c;stroke:#000000;stroke-width:0.600001;stroke-linejoin:round;stroke-opacity:0;fill-opacity:1"
       id="rect2032-9"
       width="50"
       height="20"
       x="165.72615"
       y="99.510445"
       rx="0.77000099" />
    <rect
       style="fill:#1a1a1a;fill-opacity:1;stroke:#000000;stroke-width:0.600001;stroke-linejoin:round;stroke-opacity:0"
       id="rect2032-5-9-1"
       width="50"
       height="20"
       x="165.72615"
       y="131.1521"
       rx="0.77000099" />
    <rect
       style="fill:#d5302e;stroke:#000000;stroke-width:0.600001;stroke-linejoin:round;stroke-opacity:0;fill-opacity:1"
       id="rect2032-0"
       width="50"
       height="20"
       x="165.72615"
       y="130.09378"
       rx="0.77000099" />
    <rect
       style="fill:url(#linearGradient3773);fill-opacity:1;stroke:#000000;stroke-width:0.600001;stroke-linejoin:round;stroke-opacity:0"
       id="rect2032-9-5"
       width="50"
       height="20"
       x="165.72615"
       y="99.510445"
       rx="0.77000099" />
    <path
       id="rect2149-5-3"
       style="fill:#1a1a1a;fill-opacity:1;stroke:#000000;stroke-width:0.600001;stroke-linejoin:round;stroke-opacity:0"
       d="m 195.9029,104.09262 c -0.30758,-0.29558 -0.79313,-0.28592 -1.0887,0.0217 l -9.32651,9.70528 c -0.15266,0.15885 -0.22194,0.36502 -0.21273,0.56817 l -1.01324,2.7481 0.12706,0.1221 2.70411,-1.12394 c 0.20295,8e-4 0.40578,-0.0769 0.55815,-0.23551 l 9.32651,-9.70527 c 0.29558,-0.30758 0.28592,-0.79312 -0.0217,-1.0887 z" />
    <path
       id="rect2149"
       style="fill:#ffffff;fill-opacity:1;stroke:#000000;stroke-width:0.600001;stroke-linejoin:round;stroke-opacity:0"
       d="m 195.9029,103.03428 c -0.30758,-0.29558 -0.79313,-0.28592 -1.0887,0.0217 l -9.32651,9.70528 c -0.15266,0.15885 -0.22194,0.36502 -0.21273,0.56817 l -1.01324,2.7481 0.12706,0.1221 2.70411,-1.12394 c 0.20295,8e-4 0.40578,-0.0769 0.55815,-0.23551 l 9.32651,-9.70527 c 0.29558,-0.30758 0.28592,-0.79312 -0.0217,-1.0887 z" />
    <rect
       style="fill:url(#linearGradient3812);fill-opacity:1;stroke:#000000;stroke-width:0.600001;stroke-linejoin:round;stroke-opacity:0"
       id="rect2032-0-0"
       width="50"
       height="20"
       x="165.72615"
       y="130.09378"
       rx="0.77000099" />
    <path
       id="path1214-6-3-6-4"
       style="fill:#eac36c;stroke-width:0.264999;stroke-opacity:0;fill-opacity:1"
       d="m 37.047574,114.97869 c 0.128569,0.1797 0.262729,0.35198 0.385506,0.53898 0.633376,0.96475 1.131337,2.0559 1.405083,3.27371 0.05859,0.32716 0.134432,0.65149 0.175699,0.98133 0.206344,1.64931 -0.03839,3.23414 -0.399457,4.73046 -0.417264,1.79102 -0.881483,3.55441 -1.324986,5.33042 -0.446098,1.86848 -0.942051,3.75417 -0.940509,5.79913 0.0071,0.301 0.0051,0.60175 0.02119,0.90331 0.04669,0.87469 0.156726,1.78105 0.398941,2.62413 0.150853,0.52508 0.324462,0.87755 0.536401,1.36219 0.279175,0.56161 0.298124,0.63959 0.623218,1.14256 0.775449,1.1997 1.823132,1.96285 2.771923,2.85151 l -1.570964,-1.93528 c 2.942672,2.65703 1.498055,1.4567 0.930178,0.76171 -0.116287,-0.14231 -0.229238,-0.29042 -0.336931,-0.44494 -0.334958,-0.48053 -0.362784,-0.56999 -0.652156,-1.11001 -0.623639,-1.22037 -0.917133,-2.47283 -1.008208,-3.89278 -0.01893,-0.29506 -0.01861,-0.58903 -0.02791,-0.88367 -0.02429,-2.0299 0.435383,-3.89923 0.888318,-5.74332 0.470043,-1.76082 0.914641,-3.53616 1.332219,-5.32732 0.376764,-1.51595 0.619347,-3.13714 0.433565,-4.81263 -0.03776,-0.3406 -0.110509,-0.67705 -0.165881,-1.01544 -0.254042,-1.23656 -0.728802,-2.356 -1.341519,-3.36155 -0.114073,-0.18722 -0.239141,-0.36264 -0.358635,-0.54364 z m 10.583333,0 c 0.128569,0.1797 0.262729,0.35198 0.385506,0.53898 0.633376,0.96475 1.131337,2.0559 1.405083,3.27371 0.05859,0.32716 0.134432,0.65149 0.175699,0.98133 0.206344,1.64931 -0.03839,3.23414 -0.399457,4.73046 -0.417264,1.79102 -0.881483,3.55441 -1.324986,5.33042 -0.446098,1.86848 -0.942051,3.75417 -0.940509,5.79913 0.0071,0.301 0.0051,0.60175 0.02119,0.90331 0.04669,0.87469 0.156726,1.78105 0.398942,2.62413 0.150852,0.52508 0.324461,0.87755 0.5364,1.36219 0.279175,0.56161 0.298125,0.63959 0.623218,1.14256 0.775449,1.1997 1.823133,1.96285 2.771923,2.85151 l -1.570963,-1.93528 c 2.942672,2.65703 1.498055,1.4567 0.930177,0.76171 -0.116287,-0.14231 -0.229238,-0.29042 -0.336931,-0.44494 -0.334957,-0.48053 -0.362784,-0.56999 -0.652156,-1.11001 -0.623639,-1.22037 -0.917133,-2.47283 -1.008208,-3.89278 -0.01893,-0.29506 -0.01861,-0.58903 -0.02791,-0.88367 -0.02429,-2.0299 0.435382,-3.89923 0.888317,-5.74332 0.470043,-1.76082 0.914641,-3.53616 1.332219,-5.32732 0.376764,-1.51595 0.619348,-3.13714 0.433565,-4.81263 -0.03776,-0.3406 -0.110508,-0.67705 -0.16588,-1.01544 -0.254043,-1.23656 -0.728803,-2.356 -1.34152,-3.36155 -0.114072,-0.18722 -0.239141,-0.36264 -0.358635,-0.54364 z m 10.583334,0 c 0.128569,0.1797 0.262728,0.35198 0.385505,0.53898 0.633376,0.96475 1.131338,2.0559 1.405083,3.27371 0.05859,0.32716 0.134433,0.65149 0.1757,0.98133 0.206343,1.64931 -0.03839,3.23414 -0.399458,4.73046 -0.417263,1.79102 -0.881483,3.55441 -1.324985,5.33042 -0.446098,1.86848 -0.942052,3.75417 -0.940509,5.79913 0.0071,0.301 0.0051,0.60175 0.02119,0.90331 0.04669,0.87469 0.156726,1.78105 0.398942,2.62413 0.150852,0.52508 0.324461,0.87755 0.5364,1.36219 0.279175,0.56161 0.298125,0.63908 0.623218,1.14205 0.775449,1.1997 1.823133,1.96336 2.771923,2.85202 l -1.570963,-1.93528 c 2.942672,2.65703 1.498055,1.4567 0.930177,0.76171 -0.116287,-0.14231 -0.229238,-0.29042 -0.336931,-0.44494 -0.334957,-0.48053 -0.362783,-0.56999 -0.652156,-1.11001 -0.623638,-1.22037 -0.917133,-2.47283 -1.008208,-3.89278 -0.01893,-0.29506 -0.01861,-0.58903 -0.0279,-0.88367 -0.02429,-2.0299 0.435382,-3.89923 0.888317,-5.74332 0.470043,-1.76082 0.914641,-3.53616 1.33222,-5.32732 0.376764,-1.51595 0.619347,-3.13714 0.433564,-4.81263 -0.03776,-0.3406 -0.110508,-0.67705 -0.16588,-1.01544 -0.254043,-1.23656 -0.728803,-2.356 -1.34152,-3.36155 -0.114072,-0.18722 -0.239141,-0.36264 -0.358634,-0.54364 z" />
    <g
       id="g4349"
       transform="translate(0,-0.52916667)">
      <path
         id="rect4072"
         style="opacity:1;fill:#fadbc6;fill-opacity:1;stroke:#7c123a;stroke-width:0.6;stroke-linejoin:round;stroke-opacity:0"
         d="m 233.73383,124.90267 -31.06409,0.0833 -2.72987,3.76115 h -0.3289 c -0.17439,0 -0.31493,0.18014 -0.31493,0.40421 v 47.3222 c 0,0.22406 0.14054,0.40421 0.31493,0.40421 h 66.39557 c 0.17437,0 0.3146,-0.18015 0.3146,-0.40421 v -47.3222 c 0,-0.22407 -0.14023,-0.40421 -0.3146,-0.40421 h -29.99733 z" />
      <path
         id="rect4072-8"
         style="opacity:1;fill:url(#linearGradient4147);fill-opacity:1;stroke:#7c123a;stroke-width:0.600001;stroke-linejoin:round;stroke-opacity:0"
         d="m 233.73383,124.90267 -31.06409,0.0833 -2.72987,3.76115 h -0.3289 c -0.17439,0 -0.31493,0.18014 -0.31493,0.40421 v 47.3222 c 0,0.22406 0.14054,0.40421 0.31493,0.40421 h 66.39557 c 0.17437,0 0.3146,-0.18015 0.3146,-0.40421 v -47.3222 c 0,-0.22407 -0.14023,-0.40421 -0.3146,-0.40421 h -29.99733 z" />
    </g>
    <g
       id="g4261"
       transform="translate(0,-0.52916667)">
      <rect
         style="fill:#bc5a51;fill-opacity:1;stroke:#000000;stroke-width:0.600001;stroke-linejoin:round;stroke-opacity:0"
         id="rect1833"
         width="62.399998"
         height="41.399998"
         x="223.8331"
         y="102.31785"
         rx="0.43756801"
         transform="rotate(6.3038543)"
         inkscape:transform-center-x="5.3625"
         inkscape:transform-center-y="8.04375" />
      <rect
         style="fill:url(#linearGradient4217);fill-opacity:1;stroke:#000000;stroke-width:0.600001;stroke-linejoin:round;stroke-opacity:0"
         id="rect1833-3"
         width="62.399998"
         height="41.399998"
         x="223.8331"
         y="102.31785"
         rx="0.43756801"
         transform="rotate(6.3038544)"
         inkscape:transform-center-x="5.3625"
         inkscape:transform-center-y="8.04375" />
    </g>
    <circle
       style="fill:#fadbc6;fill-opacity:1;stroke:#000000;stroke-width:0.600001;stroke-linejoin:round;stroke-opacity:0"
       id="path1884"
       cx="88.246155"
       cy="82.707642"
       r="17" />
    <circle
       style="fill:url(#linearGradient3382);fill-opacity:1;stroke:#000000;stroke-width:0.600001;stroke-linejoin:round;stroke-opacity:0"
       id="path1884-4"
       cx="88.246155"
       cy="82.707642"
       r="17" />
    <path
       id="path1860-4-5"
       style="fill:#1a1a1a;fill-opacity:1;stroke:#000000;stroke-width:0.600001;stroke-linejoin:round;stroke-opacity:0"
       d="m 88.246159,66.288369 a 17,17 0 0 0 -16.999992,16.999995 17,17 0 0 0 8.895062,14.943275 v -6.650241 c 0,-0.0046 0.001,-0.0088 0.002,-0.01344 a 8.1670829,6.2711531 0 0 1 3.6928,-5.157307 7.9999999,7.9999999 0 0 1 -3.81888,-6.82077 7.9999999,7.9999999 0 0 1 8.00002,-8.000029 7.9999999,7.9999999 0 0 1 8.000035,8.000029 7.9999999,7.9999999 0 0 1 -3.569815,6.661091 8.1670829,6.2711531 0 0 1 4.027665,5.321639 c 3e-5,0.003 0.001,0.0058 0.001,0.0088 v 6.582028 A 17,17 0 0 0 105.24616,83.288375 17,17 0 0 0 88.246169,66.28838 Z m -0.57619,33.990181 a 17,17 0 0 0 0.57619,0.01 17,17 0 0 0 0.56844,-0.01 z" />
    <path
       id="path1860"
       style="fill:#d5302e;stroke:#000000;stroke-width:0.600001;stroke-linejoin:round;stroke-opacity:0;fill-opacity:1"
       d="M 88.246562,65.759201 A 17,17 0 0 0 71.246567,82.759196 17,17 0 0 0 80.141631,97.702471 V 91.05223 c 0,-0.0046 0.0014,-0.0088 0.0016,-0.01344 a 8.1670828,6.271153 0 0 1 3.692797,-5.157309 7.9999998,7.9999998 0 0 1 -3.818887,-6.82077 7.9999998,7.9999998 0 0 1 8.000029,-8.000029 7.9999998,7.9999998 0 0 1 8.000026,8.000029 7.9999998,7.9999998 0 0 1 -3.569806,6.661091 8.1670828,6.271153 0 0 1 4.027659,5.321639 c 2.2e-5,0.003 0.001,0.0058 0.001,0.0088 V 97.63427 A 17,17 0 0 0 105.24657,82.759207 17,17 0 0 0 88.246576,65.759212 Z m -0.576191,33.990174 a 17,17 0 0 0 0.576191,0.0098 17,17 0 0 0 0.568441,-0.0098 z" />
    <path
       id="rect1894-0-0"
       style="fill:#1a1a1a;fill-opacity:1;stroke:#000000;stroke-width:0.600001;stroke-linejoin:round;stroke-opacity:0"
       d="m 73.332476,107.48338 c -0.137946,0 -0.249082,0.11114 -0.249082,0.24908 v 1.35805 c 0,0.13795 0.111136,0.24908 0.249082,0.24908 h 18.577155 c 0.13795,0 0.24857,-0.11113 0.24857,-0.24908 v -1.35805 c 0,-0.13794 -0.11062,-0.24908 -0.24857,-0.24908 z m 20.108335,0 c -0.13795,0 -0.24908,0.11114 -0.24908,0.24908 v 1.35805 c 0,0.13795 0.11113,0.24908 0.24908,0.24908 h 18.577159 c 0.13795,0 0.24856,-0.11113 0.24856,-0.24908 v -1.35805 c 0,-0.13794 -0.11061,-0.24908 -0.24856,-0.24908 z m -8.98137,10.58333 c -0.43923,0 -0.792711,0.35347 -0.792711,0.79271 v 0.27079 c 0,0.43923 0.353481,0.79271 0.792711,0.79271 H 143.6114 c 0.43923,0 0.79271,-0.35348 0.79271,-0.79271 v -0.27079 c 0,-0.43924 -0.35348,-0.79271 -0.79271,-0.79271 z m -0.65835,5.29166 c -0.0746,0 -0.134361,0.0598 -0.134361,0.13436 v 1.5875 c 0,0.0746 0.0598,0.13436 0.134361,0.13436 h 10.04021 c 0.0746,0 0.13488,-0.0598 0.13488,-0.13436 v -1.5875 c 0,-0.0746 -0.0603,-0.13436 -0.13488,-0.13436 z m 12.16101,0 c -0.22072,0 -0.39842,0.17771 -0.39842,0.39843 v 1.05936 c 0,0.22073 0.1777,0.39843 0.39842,0.39843 h 29.725329 c 0.22071,0 0.39842,-0.1777 0.39842,-0.39843 v -1.05936 c 0,-0.22072 -0.17771,-0.39843 -0.39842,-0.39843 z m 31.845599,0 c -0.0746,0 -0.13486,0.0598 -0.13486,0.13436 v 1.5875 c 0,0.0746 0.0603,0.13436 0.13486,0.13436 h 10.04022 c 0.0746,0 0.13488,-0.0598 0.13488,-0.13436 v -1.5875 c 0,-0.0746 -0.0604,-0.13436 -0.13488,-0.13436 z m -43.646949,5.29167 c -0.27365,0 -0.494021,0.22038 -0.494021,0.49403 v 0.86816 c 0,0.27365 0.220371,0.49402 0.494021,0.49402 h 36.852539 c 0.27364,0 0.49402,-0.22037 0.49402,-0.49402 v -0.86816 c 0,-0.27365 -0.22038,-0.49403 -0.49402,-0.49403 z m 39.346449,0 c -0.0669,0 -0.12042,0.054 -0.12042,0.12092 v 1.61437 c 0,0.0669 0.0535,0.12092 0.12042,0.12092 h 9.01029 c 0.0669,0 0.12093,-0.054 0.12093,-0.12092 v -1.61437 c 0,-0.0669 -0.054,-0.12092 -0.12093,-0.12092 z m -39.047759,10.58333 c -0.43923,0 -0.792711,0.35348 -0.792711,0.79272 v 0.27078 c 0,0.43923 0.353481,0.79272 0.792711,0.79272 H 143.6114 c 0.43923,0 0.79271,-0.35349 0.79271,-0.79272 v -0.27078 c 0,-0.43924 -0.35348,-0.79272 -0.79271,-0.79272 z m -0.56844,5.29167 c -0.12419,0 -0.224271,0.10008 -0.224271,0.22427 v 1.40767 c 0,0.12418 0.100071,0.22427 0.224271,0.22427 H 100.6166 c 0.12418,0 0.22427,-0.10008 0.22427,-0.22427 v -1.40767 c 0,-0.12418 -0.10006,-0.22427 -0.22427,-0.22427 z m 19.209679,0 c -0.18268,0 -0.32968,0.147 -0.32968,0.32969 v 1.19683 c 0,0.18269 0.147,0.32969 0.32968,0.32969 h 24.60315 c 0.18269,0 0.3297,-0.147 0.3297,-0.32969 v -1.19683 c 0,-0.18269 -0.14701,-0.32969 -0.3297,-0.32969 z m -18.94251,5.29167 c -0.272179,0 -0.49144,0.21926 -0.49144,0.49144 v 0.87333 c 0,0.27218 0.219261,0.49144 0.49144,0.49144 h 36.65461 c 0.27219,0 0.49144,-0.21926 0.49144,-0.49144 v -0.87333 c 0,-0.27218 -0.21925,-0.49144 -0.49144,-0.49144 z" />
    <path
       id="rect1894"
       style="fill:#ffffff;stroke:#000000;stroke-width:2.26772;stroke-linejoin:round;stroke-opacity:0;fill-opacity:1"
       d="M 277.16211 402.23633 C 276.64074 402.23633 276.2207 402.65639 276.2207 403.17773 L 276.2207 408.31055 C 276.2207 408.83193 276.64074 409.25195 277.16211 409.25195 L 347.375 409.25195 C 347.89637 409.25195 348.31445 408.83193 348.31445 408.31055 L 348.31445 403.17773 C 348.31445 402.65639 347.89637 402.23633 347.375 402.23633 L 277.16211 402.23633 z M 353.16211 402.23633 C 352.64074 402.23633 352.2207 402.65639 352.2207 403.17773 L 352.2207 408.31055 C 352.2207 408.83193 352.64074 409.25195 353.16211 409.25195 L 423.375 409.25195 C 423.89639 409.25195 424.31445 408.83193 424.31445 408.31055 L 424.31445 403.17773 C 424.31445 402.65639 423.89639 402.23633 423.375 402.23633 L 353.16211 402.23633 z M 319.2168 442.23633 C 317.55669 442.23633 316.2207 443.5723 316.2207 445.23242 L 316.2207 446.25586 C 316.2207 447.91594 317.55669 449.25195 319.2168 449.25195 L 542.7832 449.25195 C 544.44329 449.25195 545.7793 447.91594 545.7793 446.25586 L 545.7793 445.23242 C 545.7793 443.5723 544.44329 442.23633 542.7832 442.23633 L 319.2168 442.23633 z M 316.72852 462.23633 C 316.44673 462.23633 316.2207 462.46219 316.2207 462.74414 L 316.2207 468.74414 C 316.2207 469.02598 316.44671 469.25195 316.72852 469.25195 L 354.67578 469.25195 C 354.95757 469.25195 355.18555 469.02609 355.18555 468.74414 L 355.18555 462.74414 C 355.18555 462.46226 354.95755 462.23633 354.67578 462.23633 L 316.72852 462.23633 z M 362.69141 462.23633 C 361.85717 462.23633 361.18555 462.90797 361.18555 463.74219 L 361.18555 467.74609 C 361.18555 468.58035 361.85717 469.25195 362.69141 469.25195 L 475.03906 469.25195 C 475.87328 469.25195 476.54492 468.58035 476.54492 467.74609 L 476.54492 463.74219 C 476.54492 462.90797 475.87328 462.23633 475.03906 462.23633 L 362.69141 462.23633 z M 483.05273 462.23633 C 482.77086 462.23633 482.54297 462.46219 482.54297 462.74414 L 482.54297 468.74414 C 482.54297 469.02598 482.77078 469.25195 483.05273 469.25195 L 521 469.25195 C 521.28184 469.25195 521.50977 469.02609 521.50977 468.74414 L 521.50977 462.74414 C 521.50977 462.46226 521.28157 462.23633 521 462.23633 L 483.05273 462.23633 z M 318.08789 482.23633 C 317.05362 482.23633 316.2207 483.06925 316.2207 484.10352 L 316.2207 487.38477 C 316.2207 488.41903 317.05362 489.25195 318.08789 489.25195 L 457.37305 489.25195 C 458.40731 489.25195 459.24023 488.41903 459.24023 487.38477 L 459.24023 484.10352 C 459.24023 483.06925 458.40731 482.23633 457.37305 482.23633 L 318.08789 482.23633 z M 466.79883 482.23633 C 466.54609 482.23633 466.34375 482.44051 466.34375 482.69336 L 466.34375 488.79492 C 466.34375 489.04766 466.54598 489.25195 466.79883 489.25195 L 500.85352 489.25195 C 501.10625 489.25195 501.31055 489.04777 501.31055 488.79492 L 501.31055 482.69336 C 501.31055 482.44062 501.10637 482.23633 500.85352 482.23633 L 466.79883 482.23633 z M 319.2168 522.23633 C 317.55669 522.23633 316.2207 523.5723 316.2207 525.23242 L 316.2207 526.25586 C 316.2207 527.91594 317.55669 529.25195 319.2168 529.25195 L 542.7832 529.25195 C 544.44329 529.25195 545.7793 527.91594 545.7793 526.25586 L 545.7793 525.23242 C 545.7793 523.5723 544.44329 522.23633 542.7832 522.23633 L 319.2168 522.23633 z M 317.06836 542.23633 C 316.59896 542.23633 316.2207 542.6146 316.2207 543.08398 L 316.2207 548.4043 C 316.2207 548.87364 316.59895 549.25195 317.06836 549.25195 L 380.2832 549.25195 C 380.75254 549.25195 381.13086 548.87368 381.13086 548.4043 L 381.13086 543.08398 C 381.13086 542.61464 380.75262 542.23633 380.2832 542.23633 L 317.06836 542.23633 z M 389.67188 542.23633 C 388.98139 542.23633 388.42578 542.79194 388.42578 543.48242 L 388.42578 548.00586 C 388.42578 548.69634 388.98139 549.25195 389.67188 549.25195 L 482.66016 549.25195 C 483.35064 549.25195 483.90625 548.69634 483.90625 548.00586 L 483.90625 543.48242 C 483.90625 542.79194 483.35064 542.23633 482.66016 542.23633 L 389.67188 542.23633 z M 318.07812 562.23633 C 317.0494 562.23633 316.2207 563.06504 316.2207 564.09375 L 316.2207 567.39453 C 316.2207 568.42324 317.0494 569.25195 318.07812 569.25195 L 456.61523 569.25195 C 457.64398 569.25195 458.47266 568.42324 458.47266 567.39453 L 458.47266 564.09375 C 458.47266 563.06504 457.64398 562.23633 456.61523 562.23633 L 318.07812 562.23633 z "
       transform="scale(0.26458333)" />
    <rect
       style="fill:#1a1a1a;fill-opacity:1;stroke:#000000;stroke-width:0.600001;stroke-linejoin:round;stroke-opacity:0"
       id="rect2092-3-0"
       width="1.1667261"
       height="94.796501"
       x="152.58942"
       y="63.170525"
       rx="0.77000099" />
    <rect
       style="fill:#dbbbbe;stroke:#000000;stroke-width:0.600001;stroke-linejoin:round;stroke-opacity:0;fill-opacity:1"
       id="rect2092"
       width="1.1667261"
       height="94.796501"
       x="152.58942"
       y="62.112198"
       rx="0.77000099" />
    <rect
       style="fill:url(#linearGradient3705);fill-opacity:1;stroke:#000000;stroke-width:0.600001;stroke-linejoin:round;stroke-opacity:0"
       id="rect2032-5"
       width="50"
       height="20"
       x="165.72615"
       y="68.927116"
       rx="0.77000099" />
    <path
       id="rect2102-0-1"
       style="fill:#1a1a1a;fill-opacity:1;stroke:#000000;stroke-width:0.600001;stroke-linejoin:round;stroke-opacity:0"
       d="m 183.08688,82.159709 c -0.17214,0.207144 -0.15427,0.51134 0.0397,0.682338 l 3.40566,3.001892 1.4264,1.257301 0.10824,0.09539 c 0.19398,0.171001 0.48827,0.141936 0.66042,-0.06519 l 0.096,-0.115584 1.22485,-1.473858 8.28058,-9.964043 c 0.22523,-0.271022 0.20222,-0.669302 -0.0516,-0.893028 l -1.42641,-1.2573 c -0.25382,-0.223727 -0.63977,-0.185917 -0.86501,0.08511 l -7.96979,9.590076 -2.9472,-2.597797 c -0.19399,-0.170995 -0.48886,-0.141885 -0.66101,0.06525 z" />
    <path
       id="rect2102"
       style="fill:#ffffff;fill-opacity:1;stroke:#000000;stroke-width:0.600001;stroke-linejoin:round;stroke-opacity:0"
       d="m 183.08688,81.101374 c -0.17214,0.207144 -0.15427,0.51134 0.0397,0.682338 l 3.40566,3.001892 1.4264,1.257302 0.10824,0.09539 c 0.19398,0.170999 0.48827,0.141936 0.66042,-0.06519 l 0.096,-0.115584 1.22485,-1.473858 8.28058,-9.964044 c 0.22523,-0.271022 0.20222,-0.669302 -0.0516,-0.893028 l -1.42641,-1.2573 c -0.25382,-0.223727 -0.63977,-0.185917 -0.86501,0.08511 l -7.96979,9.590077 -2.9472,-2.597798 c -0.19399,-0.170995 -0.48886,-0.141885 -0.66101,0.06525 z" />
    <path
       id="rect2129-6-1"
       style="fill:#1a1a1a;fill-opacity:1;stroke:#000000;stroke-width:0.600001;stroke-linejoin:round;stroke-opacity:0"
       d="m 196.70191,136.24303 c 0.30959,0.30949 0.30948,0.80764 -2.6e-4,1.11698 l -3.79769,3.79269 3.79551,3.79411 c 0.30959,0.30949 0.30984,0.80801 1e-4,1.11735 l -1.06002,1.05862 c -0.30974,0.30934 -0.80869,0.30885 -1.11828,-6.4e-4 l -3.7955,-3.7941 -3.79769,3.79268 c -0.30974,0.30934 -0.80831,0.30922 -1.11792,-2.6e-4 l -1.05951,-1.05912 c -0.30959,-0.30949 -0.30986,-0.80802 -1.1e-4,-1.11736 l 3.79768,-3.79269 -3.79549,-3.79411 c -0.30961,-0.30949 -0.3095,-0.80763 2.5e-4,-1.11698 l 1.06002,-1.05862 c 0.30974,-0.30934 0.80832,-0.30922 1.11792,2.7e-4 l 3.7955,3.79411 3.79768,-3.79269 c 0.30974,-0.30934 0.8087,-0.30885 1.11828,6.4e-4 z" />
    <path
       id="rect2129"
       style="fill:#ffffff;fill-opacity:1;stroke:#000000;stroke-width:0.600001;stroke-linejoin:round;stroke-opacity:0"
       d="m 196.70191,135.18469 c 0.30959,0.30949 0.30948,0.80764 -2.6e-4,1.11698 l -3.79769,3.79269 3.79551,3.79411 c 0.3096,0.30949 0.30985,0.80801 1.1e-4,1.11735 l -1.06003,1.05862 c -0.30974,0.30934 -0.80868,0.30885 -1.11828,-6.3e-4 l -3.7955,-3.79411 -3.79769,3.79268 c -0.30974,0.30934 -0.80831,0.30922 -1.11792,-2.6e-4 l -1.05951,-1.05912 c -0.30959,-0.30949 -0.30986,-0.80802 -1.1e-4,-1.11736 l 3.79768,-3.79269 -3.79549,-3.79411 c -0.30961,-0.30949 -0.3095,-0.80763 2.5e-4,-1.11698 l 1.06002,-1.05862 c 0.30974,-0.30934 0.80832,-0.30922 1.11792,2.7e-4 l 3.7955,3.79411 3.79769,-3.79269 c 0.30974,-0.30934 0.80869,-0.30885 1.11828,6.4e-4 z" />
    <path
       id="path1214-6-3-6-4-8"
       style="fill:url(#linearGradient2267);fill-opacity:1;stroke-width:0.264999;stroke-opacity:0"
       d="m 37.047574,114.97869 c 0.128569,0.1797 0.262729,0.35198 0.385506,0.53898 0.633376,0.96475 1.131337,2.0559 1.405083,3.27371 0.05859,0.32716 0.134432,0.65149 0.175699,0.98133 0.206344,1.64931 -0.03839,3.23414 -0.399457,4.73046 -0.417264,1.79102 -0.881483,3.55441 -1.324986,5.33042 -0.446098,1.86848 -0.942051,3.75417 -0.940509,5.79913 0.0071,0.301 0.0051,0.60175 0.02119,0.90331 0.04669,0.87469 0.156726,1.78105 0.398941,2.62413 0.150853,0.52508 0.324462,0.87755 0.536401,1.36219 0.279175,0.56161 0.298124,0.63959 0.623218,1.14257 0.775449,1.19969 1.823132,1.96284 2.771923,2.85151 l -1.570964,-1.93529 c 2.942672,2.65703 1.498055,1.4567 0.930177,0.76172 -0.116287,-0.14232 -0.229237,-0.29042 -0.336931,-0.44495 -0.334958,-0.48052 -0.362783,-0.56999 -0.652155,-1.11 -0.623639,-1.22038 -0.917133,-2.47284 -1.008208,-3.89279 -0.01893,-0.29506 -0.01861,-0.58903 -0.02791,-0.88367 -0.02429,-2.0299 0.435383,-3.89923 0.888318,-5.74332 0.470043,-1.76082 0.914641,-3.53616 1.332219,-5.32732 0.376764,-1.51595 0.619347,-3.13714 0.433565,-4.81263 -0.03776,-0.3406 -0.110509,-0.67705 -0.165881,-1.01544 -0.254043,-1.23656 -0.728802,-2.356 -1.341519,-3.36155 -0.114073,-0.18722 -0.239141,-0.36264 -0.358635,-0.54364 z m 10.583333,0 c 0.128569,0.1797 0.262729,0.35198 0.385506,0.53898 0.633376,0.96475 1.131337,2.0559 1.405083,3.27371 0.05859,0.32716 0.134432,0.65149 0.175699,0.98133 0.206344,1.64931 -0.03839,3.23414 -0.399457,4.73046 -0.417264,1.79102 -0.881483,3.55441 -1.324986,5.33042 -0.446098,1.86848 -0.942051,3.75417 -0.940509,5.79913 0.0071,0.301 0.0051,0.60175 0.02119,0.90331 0.04669,0.87469 0.156726,1.78105 0.398942,2.62413 0.150852,0.52508 0.324461,0.87755 0.5364,1.36219 0.279175,0.56161 0.298125,0.63959 0.623218,1.14257 0.775449,1.19969 1.823133,1.96284 2.771923,2.85151 l -1.570963,-1.93529 c 2.942672,2.65703 1.498055,1.4567 0.930177,0.76172 -0.116287,-0.14232 -0.229238,-0.29042 -0.336931,-0.44495 -0.334957,-0.48052 -0.362784,-0.56999 -0.652156,-1.11 -0.623639,-1.22038 -0.917133,-2.47284 -1.008208,-3.89279 -0.01893,-0.29506 -0.01861,-0.58903 -0.02791,-0.88367 -0.02429,-2.0299 0.435382,-3.89923 0.888317,-5.74332 0.470043,-1.76082 0.914641,-3.53616 1.332219,-5.32732 0.376764,-1.51595 0.619348,-3.13714 0.433565,-4.81263 -0.03776,-0.3406 -0.110508,-0.67705 -0.16588,-1.01544 -0.254043,-1.23656 -0.728803,-2.356 -1.34152,-3.36155 -0.114072,-0.18722 -0.239141,-0.36264 -0.358635,-0.54364 z m 10.583336,0 c 0.12857,0.1797 0.26273,0.35198 0.3855,0.53898 0.63338,0.96475 1.13134,2.0559 1.40509,3.27371 0.0586,0.32716 0.13443,0.65149 0.1757,0.98133 0.20634,1.64931 -0.0384,3.23414 -0.39946,4.73046 -0.41727,1.79102 -0.88149,3.55441 -1.32499,5.33042 -0.4461,1.86848 -0.94205,3.75417 -0.94051,5.79913 0.007,0.301 0.005,0.60175 0.0212,0.90331 0.0467,0.87469 0.15673,1.78105 0.39895,2.62413 0.15085,0.52508 0.32446,0.87755 0.5364,1.36219 0.27917,0.56161 0.29812,0.63908 0.62321,1.14206 0.77545,1.1997 1.82314,1.96335 2.77193,2.85202 l -1.57097,-1.93529 c 2.94268,2.65703 1.49806,1.4567 0.93018,0.76172 -0.11629,-0.14232 -0.22924,-0.29042 -0.33693,-0.44495 -0.33496,-0.48052 -0.36278,-0.56999 -0.65216,-1.11 -0.62363,-1.22038 -0.91713,-2.47284 -1.0082,-3.89279 -0.0189,-0.29506 -0.0186,-0.58903 -0.0279,-0.88367 -0.0243,-2.0299 0.43538,-3.89923 0.88831,-5.74332 0.47005,-1.76082 0.91464,-3.53616 1.33222,-5.32732 0.37677,-1.51595 0.61935,-3.13714 0.43357,-4.81263 -0.0378,-0.3406 -0.11051,-0.67705 -0.16588,-1.01544 -0.25405,-1.23656 -0.72881,-2.356 -1.34152,-3.36155 -0.11408,-0.18722 -0.23914,-0.36264 -0.35864,-0.54364 z" />
    <path
       id="path1860-4"
       style="fill:url(#linearGradient2395);fill-opacity:1;stroke:#000000;stroke-width:0.600001;stroke-linejoin:round;stroke-opacity:0"
       d="M 88.246149,65.759203 A 17,17 0 0 0 71.246157,82.759198 17,17 0 0 0 80.141219,97.70247 v -6.650238 c 0,-0.0046 10e-4,-0.0088 0.002,-0.01344 a 8.1670829,6.2711531 0 0 1 3.69281,-5.157308 7.9999999,7.9999999 0 0 1 -3.81888,-6.82077 7.9999999,7.9999999 0 0 1 8.00002,-8.000029 7.9999999,7.9999999 0 0 1 8.00003,8.000029 7.9999999,7.9999999 0 0 1 -3.56981,6.661091 8.1670829,6.2711531 0 0 1 4.02766,5.321639 c 3e-5,0.003 0.001,0.0058 0.001,0.0088 V 97.63427 A 17,17 0 0 0 105.24616,82.759209 17,17 0 0 0 88.246169,65.759214 Z m -0.57619,33.99018 a 17,17 0 0 0 0.57619,0.01 17,17 0 0 0 0.56844,-0.01 z" />
    <path
       id="path3341"
       style="opacity:1;fill:#000000;fill-opacity:1;stroke:#000000;stroke-width:0.600001;stroke-linejoin:round;stroke-opacity:0"
       d="m 84.660467,77.525671 a 1,1 0 0 0 -0.999937,0.99994 1,1 0 0 0 0.999937,1.000455 1,1 0 0 0 0.99994,-1.000455 1,1 0 0 0 -0.99994,-0.99994 z m 6.879167,0 a 1,1 0 0 0 -0.999937,0.99994 1,1 0 0 0 0.999937,1.000455 1,1 0 0 0 0.99994,-1.000455 1,1 0 0 0 -0.99994,-0.99994 z" />
    <path
       id="rect1894-0"
       style="fill:url(#linearGradient3566);fill-opacity:1;stroke:#000000;stroke-width:0.600001;stroke-linejoin:round;stroke-opacity:0"
       d="m 73.332474,106.42503 c -0.137946,0 -0.249082,0.11114 -0.249082,0.24908 v 1.35805 c 0,0.13795 0.111136,0.24908 0.249082,0.24908 h 18.577155 c 0.13795,0 0.24857,-0.11113 0.24857,-0.24908 v -1.35805 c 0,-0.13794 -0.11062,-0.24908 -0.24857,-0.24908 z m 20.108335,0 c -0.13795,0 -0.24908,0.11114 -0.24908,0.24908 v 1.35805 c 0,0.13795 0.11113,0.24908 0.24908,0.24908 h 18.577161 c 0.13795,0 0.24856,-0.11113 0.24856,-0.24908 v -1.35805 c 0,-0.13794 -0.11061,-0.24908 -0.24856,-0.24908 z m -8.98137,10.58333 c -0.43923,0 -0.79271,0.35347 -0.79271,0.79271 v 0.27079 c 0,0.43923 0.35348,0.79271 0.79271,0.79271 h 59.151951 c 0.43923,0 0.79272,-0.35348 0.79272,-0.79271 v -0.27079 c 0,-0.43924 -0.35349,-0.79271 -0.79272,-0.79271 z m -0.65835,5.29166 c -0.0746,0 -0.13436,0.0598 -0.13436,0.13436 v 1.5875 c 0,0.0746 0.0598,0.13436 0.13436,0.13436 h 10.04021 c 0.0746,0 0.13488,-0.0598 0.13488,-0.13436 v -1.5875 c 0,-0.0746 -0.0603,-0.13436 -0.13488,-0.13436 z m 12.16101,0 c -0.22072,0 -0.39842,0.17771 -0.39842,0.39843 v 1.05936 c 0,0.22073 0.1777,0.39843 0.39842,0.39843 h 29.725321 c 0.22072,0 0.39842,-0.1777 0.39842,-0.39843 v -1.05936 c 0,-0.22072 -0.1777,-0.39843 -0.39842,-0.39843 z m 31.845601,0 c -0.0746,0 -0.13487,0.0598 -0.13487,0.13436 v 1.5875 c 0,0.0746 0.0603,0.13436 0.13487,0.13436 h 10.04022 c 0.0746,0 0.13487,-0.0598 0.13487,-0.13436 v -1.5875 c 0,-0.0746 -0.0604,-0.13436 -0.13487,-0.13436 z m -43.646951,5.29167 c -0.27365,0 -0.49402,0.22038 -0.49402,0.49403 v 0.86816 c 0,0.27365 0.22037,0.49402 0.49402,0.49402 h 36.852541 c 0.27364,0 0.49402,-0.22037 0.49402,-0.49402 v -0.86816 c 0,-0.27365 -0.22038,-0.49403 -0.49402,-0.49403 z m 39.346441,0 c -0.0669,0 -0.12041,0.054 -0.12041,0.12092 v 1.61437 c 0,0.0669 0.0535,0.12092 0.12041,0.12092 h 9.0103 c 0.0669,0 0.12093,-0.054 0.12093,-0.12092 v -1.61437 c 0,-0.0669 -0.054,-0.12092 -0.12093,-0.12092 z m -39.047751,10.58333 c -0.43923,0 -0.79271,0.35348 -0.79271,0.79272 v 0.27078 c 0,0.43923 0.35348,0.79272 0.79271,0.79272 h 59.151951 c 0.43923,0 0.79272,-0.35349 0.79272,-0.79272 v -0.27078 c 0,-0.43924 -0.35349,-0.79272 -0.79272,-0.79272 z m -0.56844,5.29167 c -0.12419,0 -0.22427,0.10008 -0.22427,0.22427 v 1.40767 c 0,0.12418 0.10007,0.22427 0.22427,0.22427 H 100.6166 c 0.12418,0 0.22427,-0.10008 0.22427,-0.22427 v -1.40767 c 0,-0.12418 -0.10007,-0.22427 -0.22427,-0.22427 z m 19.209681,0 c -0.18269,0 -0.32969,0.147 -0.32969,0.32969 v 1.19683 c 0,0.18269 0.147,0.32969 0.32969,0.32969 h 24.60315 c 0.18269,0 0.3297,-0.147 0.3297,-0.32969 v -1.19683 c 0,-0.18269 -0.14701,-0.32969 -0.3297,-0.32969 z m -18.942511,5.29167 c -0.27218,0 -0.49144,0.21926 -0.49144,0.49144 v 0.87333 c 0,0.27218 0.21926,0.49144 0.49144,0.49144 h 36.654611 c 0.27219,0 0.49144,-0.21926 0.49144,-0.49144 v -0.87333 c 0,-0.27218 -0.21925,-0.49144 -0.49144,-0.49144 z" />
    <rect
       style="fill:url(#linearGradient3653);fill-opacity:1;stroke:#000000;stroke-width:0.600001;stroke-linejoin:round;stroke-opacity:0"
       id="rect2092-3"
       width="1.1667261"
       height="94.796501"
       x="152.58942"
       y="62.112198"
       rx="0.77000099" />
    <path
       id="rect2129-6"
       style="fill:url(#linearGradient3863);fill-opacity:1;stroke:#000000;stroke-width:0.600001;stroke-linejoin:round;stroke-opacity:0"
       d="m 196.70191,135.18469 c 0.30959,0.30949 0.30948,0.80764 -2.6e-4,1.11698 l -3.79769,3.79269 3.79551,3.79411 c 0.3096,0.30949 0.30985,0.80801 1.1e-4,1.11735 l -1.06003,1.05862 c -0.30974,0.30934 -0.80868,0.30885 -1.11828,-6.4e-4 l -3.7955,-3.7941 -3.79769,3.79268 c -0.30974,0.30934 -0.80831,0.30922 -1.11792,-2.6e-4 l -1.05951,-1.05912 c -0.30959,-0.30949 -0.30986,-0.80802 -1.1e-4,-1.11736 l 3.79768,-3.79269 -3.79549,-3.79411 c -0.30961,-0.30949 -0.3095,-0.80763 2.5e-4,-1.11698 l 1.06002,-1.05862 c 0.30974,-0.30934 0.80832,-0.30922 1.11792,2.7e-4 l 3.7955,3.79411 3.79769,-3.79269 c 0.30974,-0.30934 0.80869,-0.30885 1.11828,6.4e-4 z" />
    <path
       id="rect2149-5"
       style="fill:url(#linearGradient3886);fill-opacity:1;stroke:#000000;stroke-width:0.600001;stroke-linejoin:round;stroke-opacity:0"
       d="m 195.9029,103.03428 c -0.30758,-0.29558 -0.79313,-0.28592 -1.0887,0.0217 l -9.32651,9.70528 c -0.15266,0.15885 -0.22194,0.36502 -0.21273,0.56817 l -1.01324,2.7481 0.12706,0.1221 2.70411,-1.12394 c 0.20295,7.9e-4 0.40578,-0.0769 0.55815,-0.23551 l 9.32651,-9.70527 c 0.29558,-0.30758 0.28592,-0.79312 -0.0217,-1.0887 z" />
    <path
       id="rect2102-0"
       style="fill:url(#linearGradient3909);fill-opacity:1;stroke:#000000;stroke-width:0.600001;stroke-linejoin:round;stroke-opacity:0"
       d="m 183.08688,81.101374 c -0.17214,0.207144 -0.15427,0.51134 0.0397,0.682338 l 3.40566,3.001893 1.4264,1.257301 0.10824,0.09539 c 0.19398,0.171 0.48827,0.141936 0.66042,-0.06519 l 0.096,-0.115584 1.22485,-1.473858 8.28058,-9.964044 c 0.22523,-0.271022 0.20222,-0.669302 -0.0516,-0.893028 l -1.42641,-1.2573 c -0.25382,-0.223727 -0.63977,-0.185917 -0.86501,0.08511 l -7.96979,9.590077 -2.9472,-2.597798 c -0.19399,-0.170995 -0.48886,-0.141885 -0.66101,0.06525 z" />
    <path
       id="path2678-1-5-19-4-3"
       style="fill:url(#linearGradient4108);fill-opacity:1;stroke-width:0.264999;stroke-opacity:0"
       d="m 261.20632,71.363423 a 1.7749357,1.7241193 0 0 0 -1.77344,1.706195 1.7749357,1.7241193 0 0 0 1.75648,1.741834 1.7749357,1.7241193 0 0 0 1.79317,-1.706639 1.7749357,1.7241193 0 0 0 -1.75694,-1.74139 1.7749357,1.7241193 0 0 0 -0.0192,0 z m -6.34214,5.783245 a 1.7749357,1.7241193 0 0 0 -1.77345,1.706195 1.7749357,1.7241193 0 0 0 1.75694,1.741833 1.7749357,1.7241193 0 0 0 1.79271,-1.706642 1.7749357,1.7241193 0 0 0 -1.75648,-1.741386 1.7749357,1.7241193 0 0 0 -0.0197,0 z m 6.34214,0.60318 a 1.7749357,1.7241193 0 0 0 -1.77344,1.706195 1.7749357,1.7241193 0 0 0 1.75648,1.741835 1.7749357,1.7241193 0 0 0 1.79317,-1.70664 1.7749357,1.7241193 0 0 0 -1.75694,-1.74139 1.7749357,1.7241193 0 0 0 -0.0192,0 z m -13.44971,3.233306 a 1.7749357,1.7241193 0 0 0 -1.7739,1.706642 1.7749357,1.7241193 0 0 0 1.75694,1.741387 1.7749357,1.7241193 0 0 0 1.79317,-1.706195 1.7749357,1.7241193 0 0 0 -1.75694,-1.741834 1.7749357,1.7241193 0 0 0 -0.0192,0 z m 7.10757,2.549938 a 1.7749357,1.7241193 0 0 0 -1.77345,1.706195 1.7749357,1.7241193 0 0 0 1.75649,1.741834 1.7749357,1.7241193 0 0 0 1.79316,-1.706639 1.7749357,1.7241193 0 0 0 -1.75648,-1.74139 1.7749357,1.7241193 0 0 0 -0.0197,0 z m 6.34214,0.603181 a 1.7749357,1.7241193 0 0 0 -1.77344,1.706196 1.7749357,1.7241193 0 0 0 1.75648,1.741833 1.7749357,1.7241193 0 0 0 1.79317,-1.706639 1.7749357,1.7241193 0 0 0 -1.75694,-1.74139 1.7749357,1.7241193 0 0 0 -0.0192,0 z m -13.44971,3.233309 a 1.7749357,1.7241193 0 0 0 -1.7739,1.706639 1.7749357,1.7241193 0 0 0 1.75694,1.741387 1.7749357,1.7241193 0 0 0 1.79271,-1.706194 1.7749357,1.7241193 0 0 0 -1.75648,-1.741832 1.7749357,1.7241193 0 0 0 -0.0192,0 z m 7.10757,2.549935 a 1.7749357,1.7241193 0 0 0 -1.77345,1.706195 1.7749357,1.7241193 0 0 0 1.75649,1.741835 1.7749357,1.7241193 0 0 0 1.79316,-1.70664 1.7749357,1.7241193 0 0 0 -1.75648,-1.74139 1.7749357,1.7241193 0 0 0 -0.0197,0 z m 6.34214,0.602737 a 1.7749357,1.7241193 0 0 0 -1.77344,1.706639 1.7749357,1.7241193 0 0 0 1.75648,1.741835 1.7749357,1.7241193 0 0 0 1.79317,-1.706639 1.7749357,1.7241193 0 0 0 -1.75694,-1.741391 1.7749357,1.7241193 0 0 0 -0.0192,-5.29e-4 z m -13.44971,3.233754 a 1.7749357,1.7241193 0 0 0 -1.7739,1.70664 1.7749357,1.7241193 0 0 0 1.75694,1.741392 1.7749357,1.7241193 0 0 0 1.79271,-1.7062 1.7749357,1.7241193 0 0 0 -1.75648,-1.741832 1.7749357,1.7241193 0 0 0 -0.0192,0 z m 7.10757,2.549934 a 1.7749357,1.7241193 0 0 0 -1.77345,1.706199 1.7749357,1.7241193 0 0 0 1.75649,1.741829 1.7749357,1.7241193 0 0 0 1.79316,-1.70663 1.7749357,1.7241193 0 0 0 -1.75694,-1.741398 1.7749357,1.7241193 0 0 0 -0.0192,0 z m -7.10757,3.836498 a 1.7749357,1.7241193 0 0 0 -1.7739,1.70663 1.7749357,1.7241193 0 0 0 1.75694,1.74139 1.7749357,1.7241193 0 0 0 1.79271,-1.7062 1.7749357,1.7241193 0 0 0 -1.75648,-1.74182 1.7749357,1.7241193 0 0 0 -0.0192,0 z m 7.10757,2.54993 a 1.7749357,1.7241193 0 0 0 -1.77345,1.70619 1.7749357,1.7241193 0 0 0 1.75649,1.74184 1.7749357,1.7241193 0 0 0 1.79316,-1.70664 1.7749357,1.7241193 0 0 0 -1.75694,-1.74139 1.7749357,1.7241193 0 0 0 -0.0192,0 z m -7.10802,3.83649 a 1.7749357,1.7241193 0 0 0 -1.77345,1.70664 1.7749357,1.7241193 0 0 0 1.75694,1.74139 1.7749357,1.7241193 0 0 0 1.79271,-1.7062 1.7749357,1.7241193 0 0 0 -1.75648,-1.74183 1.7749357,1.7241193 0 0 0 -0.0197,0 z m 0,6.38642 a 1.7749357,1.7241193 0 0 0 -1.77345,1.70665 1.7749357,1.7241193 0 0 0 1.75694,1.74138 1.7749357,1.7241193 0 0 0 1.79271,-1.70619 1.7749357,1.7241193 0 0 0 -1.75648,-1.74184 1.7749357,1.7241193 0 0 0 -0.0197,0 z" />
    <g
       id="g4343"
       transform="translate(-1.5875)">
      <rect
         style="fill:#2c6181;fill-opacity:1;stroke:#000000;stroke-width:0.600001;stroke-linejoin:round;stroke-opacity:0"
         id="rect1833-1"
         width="62.399998"
         height="41.399998"
         x="243.38728"
         y="70.936447"
         rx="0.43756801"
         transform="rotate(13.87556)"
         inkscape:transform-center-x="6.3756464"
         inkscape:transform-center-y="7.2670154" />
      <rect
         style="fill:url(#linearGradient4345);fill-opacity:1;stroke:#000000;stroke-width:0.600001;stroke-linejoin:round;stroke-opacity:0"
         id="rect1833-1-9"
         width="62.399998"
         height="41.399998"
         x="243.38728"
         y="70.936447"
         rx="0.43756801"
         transform="rotate(13.87556)"
         inkscape:transform-center-x="6.3756464"
         inkscape:transform-center-y="7.2670154" />
    </g>
  </g>
</svg>
