<?xml version="1.0" encoding="UTF-8" standalone="no"?>
<svg
   xmlns:dc="http://purl.org/dc/elements/1.1/"
   xmlns:cc="http://creativecommons.org/ns#"
   xmlns:rdf="http://www.w3.org/1999/02/22-rdf-syntax-ns#"
   xmlns:svg="http://www.w3.org/2000/svg"
   xmlns="http://www.w3.org/2000/svg"
   xmlns:sodipodi="http://sodipodi.sourceforge.net/DTD/sodipodi-0.dtd"
   xmlns:inkscape="http://www.inkscape.org/namespaces/inkscape"
   width="100"
   height="100"
   viewBox="0 0 26.458333 26.458334"
   version="1.1"
   id="svg8"
   sodipodi:docname="GradesIcon.svg"
   inkscape:version="1.0.1 (3bc2e813f5, 2020-09-07)"
   inkscape:export-filename="C:\Users\Michelle\Desktop\School\APPDEV-Group\Midterm SVG\GradesIcon.png"
   inkscape:export-xdpi="93.413918"
   inkscape:export-ydpi="93.413918">
  <defs
     id="defs2" />
  <sodipodi:namedview
     id="base"
     pagecolor="#ffffff"
     bordercolor="#666666"
     borderopacity="1.0"
     inkscape:pageopacity="0.0"
     inkscape:pageshadow="2"
     inkscape:zoom="5.55"
     inkscape:cx="89.72973"
     inkscape:cy="50"
     inkscape:document-units="mm"
     inkscape:current-layer="layer1"
     inkscape:document-rotation="0"
     showgrid="false"
     units="px"
     inkscape:window-width="1304"
     inkscape:window-height="745"
     inkscape:window-x="-8"
     inkscape:window-y="-8"
     inkscape:window-maximized="1" />
  <metadata
     id="metadata5">
    <rdf:RDF>
      <cc:Work
         rdf:about="">
        <dc:format>image/svg+xml</dc:format>
        <dc:type
           rdf:resource="http://purl.org/dc/dcmitype/StillImage" />
        <dc:title></dc:title>
      </cc:Work>
    </rdf:RDF>
  </metadata>
  <g
     inkscape:label="Layer 1"
     inkscape:groupmode="layer"
     id="layer1">
    <g
       id="g929"
       style="fill:#e6e6e6">
      <path
         id="path835"
         style="fill:#e6e6e6;stroke:#000000;stroke-width:2.26772;stroke-linejoin:round;stroke-opacity:0"
         d="M 50.267578 4.9140625 A 45.35433 45.35433 0 0 0 4.9140625 50.267578 A 45.35433 45.35433 0 0 0 50.267578 95.621094 A 45.35433 45.35433 0 0 0 95.621094 50.267578 A 45.35433 45.35433 0 0 0 50.267578 4.9140625 z M 50.183594 6.8027344 A 43.464567 43.464567 0 0 1 50.267578 6.8027344 A 43.464567 43.464567 0 0 1 93.732422 50.267578 A 43.464567 43.464567 0 0 1 50.267578 93.732422 A 43.464567 43.464567 0 0 1 6.8027344 50.267578 A 43.464567 43.464567 0 0 1 50.183594 6.8027344 z "
         transform="scale(0.26458333)" />
      <g
         id="text864"
         style="font-size:7.05556px;line-height:1.25;font-family:Monitta;-inkscape-font-specification:'Monitta, Normal';fill:#e6e6e6;stroke-width:0.264583" />
      <g
         id="text868"
         style="font-size:7.05556px;line-height:1.25;font-family:'Ink Free';-inkscape-font-specification:'Ink Free, Normal';fill:#e6e6e6;stroke-width:0.264583" />
      <g
         id="text872"
         style="font-size:25.4px;line-height:1.25;font-family:'Ink Free';-inkscape-font-specification:'Ink Free, Normal';fill:#e6e6e6;stroke-width:0.264583" />
      <g
         aria-label="A+"
         transform="rotate(-17.852152)"
         id="text912"
         style="font-size:12.7px;line-height:1.25;font-family:'MV Boli';-inkscape-font-specification:'MV Boli, Normal';stroke-width:0.264583;fill:#e6e6e6">
        <path
           d="m 7.2491249,20.718604 q -0.1302247,0 -0.2294434,-0.04961 -0.099219,-0.04961 -0.1674316,-0.130224 -0.062012,-0.08062 -0.099219,-0.186036 -0.031006,-0.10542 -0.031006,-0.210839 0,-0.09302 0.049609,-0.254249 0.049609,-0.167431 0.1240235,-0.37207 0.080615,-0.204638 0.1736328,-0.427881 0.093017,-0.223242 0.179834,-0.427881 0.086816,-0.204638 0.1488281,-0.378271 0.062012,-0.173633 0.086816,-0.272852 0.024805,-0.111621 0.062012,-0.26665 0.037207,-0.155029 0.080615,-0.334863 0.049609,-0.186035 0.093018,-0.384473 0.049609,-0.204639 0.099219,-0.409277 -0.086816,0.0186 -0.2170411,0.03721 -0.1240234,0.0124 -0.2666503,0.0248 -0.2046387,0.0186 -0.4030762,0.05581 -0.1984375,0.03721 -0.4092773,0.08682 -0.2046387,0.04341 -0.4278809,0.09922 -0.2232422,0.04961 -0.4774902,0.10542 -0.3720703,0.08062 -0.7441406,0.179834 -0.3720703,0.09922 -0.7751465,0.09922 -0.1240234,0 -0.2294434,-0.06201 -0.1054199,-0.06821 -0.2356445,-0.09922 -0.1240234,0.198438 -0.2356445,0.427881 -0.1116211,0.223242 -0.2046387,0.465088 -0.093018,0.235645 -0.1674316,0.471289 -0.074414,0.229444 -0.1302246,0.434082 -0.031006,0.111621 -0.055811,0.291455 -0.018603,0.173633 -0.037207,0.359668 -0.018603,0.179834 -0.037207,0.347266 -0.018604,0.167432 -0.037207,0.26665 -0.018604,0.09302 -0.074414,0.186035 -0.055811,0.08682 -0.1364258,0.161231 -0.080615,0.07441 -0.179834,0.117822 -0.099219,0.04961 -0.1984375,0.04961 -0.1736328,0 -0.2852539,-0.09922 -0.1054199,-0.10542 -0.1736328,-0.254248 -0.062012,-0.15503 -0.086816,-0.334864 -0.024805,-0.179834 -0.024805,-0.328662 0,-0.378271 0.093018,-0.781347 0.093018,-0.409278 0.2480469,-0.824756 0.1612304,-0.42168 0.3720703,-0.84336 0.217041,-0.42788 0.4650878,-0.84956 0.2046387,-0.378272 0.5084961,-0.874365 0.3038574,-0.496094 0.6759278,-1.016992 0.3782714,-0.5271 0.8123535,-1.029395 0.4402832,-0.502295 0.9115722,-0.892969 0.4712891,-0.396875 0.9673828,-0.63872 0.4960937,-0.241846 0.9859863,-0.241846 0.5146973,0 0.8557617,0.186035 0.3472656,0.186035 0.5519043,0.502295 0.2046387,0.31626 0.2852539,0.737939 0.086816,0.42168 0.086816,0.892969 0,0.415479 -0.05581,0.855762 -0.049609,0.440283 -0.1302246,0.861963 -0.074414,0.421679 -0.1674317,0.812353 -0.086816,0.390674 -0.1612304,0.706934 L 8.6567908,18.10791 q -0.012402,0.03721 -0.049609,0.148828 -0.031006,0.111621 -0.086816,0.272852 -0.049609,0.155029 -0.1178223,0.341064 -0.062012,0.179834 -0.1302246,0.359668 -0.062012,0.173633 -0.1240234,0.322461 -0.055811,0.148828 -0.099219,0.241846 l 0.0062,-0.0062 q -0.043408,0.16123 -0.093018,0.328662 -0.049609,0.167431 -0.1364258,0.303857 -0.086816,0.130225 -0.2232422,0.217041 -0.1364257,0.08062 -0.3534667,0.08062 z m 0.3162597,-7.763868 q -0.2790527,0 -0.5581054,0.117823 -0.2728516,0.111621 -0.539502,0.297656 -0.2666504,0.186035 -0.5208984,0.434082 -0.2480469,0.248047 -0.4774902,0.508496 -0.2232422,0.260449 -0.4216797,0.5271 -0.1984375,0.260449 -0.359668,0.483691 -0.024805,0.03721 -0.068213,0.09922 -0.037207,0.05581 -0.080615,0.130224 -0.037207,0.06821 -0.074414,0.148829 -0.037207,0.07441 -0.062012,0.136425 h 0.6387207 q 0.3472656,0 0.79375,-0.04961 0.4464844,-0.04961 0.8805664,-0.117822 0.4402832,-0.06821 0.8061523,-0.136426 0.3658691,-0.07441 0.5519043,-0.111621 0.024805,-0.08061 0.043408,-0.217041 0.024805,-0.136426 0.043408,-0.303858 0.018603,-0.167431 0.024805,-0.353466 0.012402,-0.192237 0.012402,-0.390674 0,-0.161231 -0.012402,-0.365869 Q 8.1730994,13.581055 8.1110877,13.39502 8.049076,13.208984 7.9188514,13.084961 7.794828,12.954736 7.5653846,12.954736 Z"
           style="stroke-width:0.264583;fill:#e6e6e6"
           id="path914" />
        <path
           d="m 13.766557,16.638232 q -0.353467,1.668116 -0.353467,2.207618 0,0.173632 -0.223242,0.285254 -0.217041,0.111621 -0.440284,0.111621 -0.248047,0 -0.403076,-0.124024 -0.155029,-0.124023 -0.155029,-0.310058 0,-0.663526 0.353467,-2.133203 -0.874366,0.0186 -1.513086,0.08682 -0.372071,0.03721 -0.502295,0.03721 -0.353467,0 -0.353467,-0.620117 0,-0.241846 0.341065,-0.384473 0.347265,-0.142627 2.313037,-0.173633 0.620117,-2.102197 0.787548,-2.350244 0.167432,-0.254248 0.489893,-0.254248 0.508496,0 0.508496,0.241846 0,0.130224 -0.09302,0.396875 -0.09302,0.26665 -0.527099,1.928564 1.172021,-0.03721 1.928564,-0.03721 0.483692,0 0.483692,0.483692 0,0.570507 -0.713135,0.570507 -0.806152,0 -1.928564,0.03721 z"
           style="stroke-width:0.264583;fill:#e6e6e6"
           id="path916" />
      </g>
    </g>
  </g>
</svg>
