<?xml version="1.0" encoding="UTF-8" standalone="no"?>
<svg
   xmlns:dc="http://purl.org/dc/elements/1.1/"
   xmlns:cc="http://creativecommons.org/ns#"
   xmlns:rdf="http://www.w3.org/1999/02/22-rdf-syntax-ns#"
   xmlns:svg="http://www.w3.org/2000/svg"
   xmlns="http://www.w3.org/2000/svg"
   xmlns:sodipodi="http://sodipodi.sourceforge.net/DTD/sodipodi-0.dtd"
   xmlns:inkscape="http://www.inkscape.org/namespaces/inkscape"
   width="100"
   height="100"
   viewBox="0 0 26.458333 26.458333"
   version="1.1"
   id="svg8"
   inkscape:version="1.0.1 (3bc2e813f5, 2020-09-07)"
   sodipodi:docname="HomeIcon.svg"
   inkscape:export-filename="C:\Users\Michelle\Desktop\School\APPDEV-Group\Midterm SVG\HomeIcon.png"
   inkscape:export-xdpi="96.900002"
   inkscape:export-ydpi="96.900002">
  <defs
     id="defs2" />
  <sodipodi:namedview
     id="base"
     pagecolor="#ffffff"
     bordercolor="#666666"
     borderopacity="1.0"
     inkscape:pageopacity="0.0"
     inkscape:pageshadow="2"
     inkscape:zoom="5.55"
     inkscape:cx="50"
     inkscape:cy="50"
     inkscape:document-units="mm"
     inkscape:current-layer="layer1"
     inkscape:document-rotation="0"
     showgrid="false"
     units="px"
     inkscape:window-width="1304"
     inkscape:window-height="745"
     inkscape:window-x="-8"
     inkscape:window-y="-8"
     inkscape:window-maximized="1" />
  <metadata
     id="metadata5">
    <rdf:RDF>
      <cc:Work
         rdf:about="">
        <dc:format>image/svg+xml</dc:format>
        <dc:type
           rdf:resource="http://purl.org/dc/dcmitype/StillImage" />
        <dc:title></dc:title>
      </cc:Work>
    </rdf:RDF>
  </metadata>
  <g
     inkscape:label="Layer 1"
     inkscape:groupmode="layer"
     id="layer1">
    <path
       id="path840"
       style="fill:#e6e6e6;stroke:#000000;stroke-width:0.600004;stroke-linejoin:round;stroke-opacity:0"
       d="M 13.104648,2.100002 0.99995218,12.689635 H 4.230889 v 11.748973 c 0,0.03409 0.02472,0.06139 0.055299,0.06139 h 3.6655762 1.0787148 0.34568 c -0.02954,0 -0.0533,-0.0247 -0.0533,-0.05541 v -7.952329 c 0,-0.03072 0.02376,-0.05541 0.0533,-0.05541 h 7.647715 c 0.02954,0 0.0533,0.02471 0.0533,0.05541 v 7.952329 c 0,0.03072 -0.02376,0.05541 -0.0533,0.05541 h 0.345679 0.220259 4.524033 c 0.03058,0 0.0553,-0.0273 0.0553,-0.06139 V 12.689635 h 3.230938 L 13.15113,2.100002 Z m 0.0051,0.3952901 h 0.04409 L 24.256742,12.27351 h -2.517536 v 11.761891 c 0,0.02971 -0.02299,0.05361 -0.05156,0.05361 h -4.134259 c -0.02858,0 -0.05155,-0.02391 -0.05155,-0.05361 V 16.024598 H 8.882216 v 8.010803 c 0,0.02971 -0.02298,0.05361 -0.05156,0.05361 H 4.6963834 c -0.028572,0 -0.051558,-0.02391 -0.051558,-0.05361 V 12.27351 h -2.507386 z" />
  </g>
</svg>
